<?xml version="1.0" encoding="utf-8"?>
<!-- Generator: Adobe Illustrator 24.0.2, SVG Export Plug-In . SVG Version: 6.00 Build 0)  -->
<svg version="1.1" id="Layer_1" xmlns="http://www.w3.org/2000/svg" xmlns:xlink="http://www.w3.org/1999/xlink" x="0px" y="0px"
	 viewBox="0 0 50 50" style="enable-background:new 0 0 50 50;" xml:space="preserve">
<style type="text/css">
	.st0{fill:#F04923;}
</style>
<path class="st0" d="M33.8,50c-5.9,0-11.8,0-17.7,0c-0.7-0.1-1.4-0.1-2.1-0.2C6.2,49.4,1.2,44.8,0.3,37C0.2,36,0.1,34.9,0,33.8
	c0-5.9,0-11.8,0-17.7c0.1-0.7,0.1-1.4,0.2-2.1C0.6,6.2,5.2,1.2,13,0.3C14,0.2,15.1,0.1,16.2,0c5.9,0,11.8,0,17.7,0
	c0.7,0.1,1.4,0.1,2.1,0.2c7.8,0.4,12.8,5,13.7,12.8c0.1,1.1,0.2,2.1,0.3,3.2c0,5.9,0,11.8,0,17.7c-0.1,0.7-0.1,1.4-0.2,2.1
	c-0.4,7.8-5,12.8-12.8,13.7C36,49.8,34.9,49.9,33.8,50z M45.3,25C45.3,25,45.3,25,45.3,25c0-3.6,0.1-7.1,0-10.7
	c-0.2-5.6-3.1-9.1-8.2-9.5c-7.8-0.7-15.6-0.5-23.5-0.1c-0.2,0-0.4,0-0.7,0.1c-4.2,0.6-7,3-7.9,7C4.8,12.9,4.7,14,4.7,15
	C4.6,20,4.5,24.9,4.5,29.9c0,2.4,0.1,4.8,0.3,7.1c0.5,4.4,3.1,7.3,7.5,8c2.5,0.4,5,0.4,7.5,0.4c5.2,0,10.3,0,15.5-0.1
	c6.4-0.2,9.8-3.6,10-10C45.4,31.9,45.3,28.5,45.3,25z"/>
<path class="st0" d="M37.8,25c0,7.1-5.7,12.9-12.9,12.8c-7.1,0-12.8-5.7-12.8-12.8c0-7.1,5.7-12.9,12.9-12.8
	C32.1,12.2,37.8,17.9,37.8,25z M25,33.3c4.6,0,8.3-3.7,8.4-8.3c0-4.6-3.7-8.3-8.3-8.4c-4.6,0-8.4,3.7-8.4,8.3
	C16.7,29.6,20.4,33.3,25,33.3z"/>
<path class="st0" d="M38.4,8.7c1.7,0,3,1.4,3,3c0,1.6-1.3,3-3,3c-1.7,0-3-1.3-3-3C35.3,10,36.7,8.6,38.4,8.7z"/>
</svg>
